<svg width="20" height="21" viewBox="0 0 20 21" fill="none" xmlns="http://www.w3.org/2000/svg">
<g clip-path="url(#clip0_3125_9693)">
<path d="M15.8169 10.784C15.8081 9.15076 16.537 7.918 18.0122 7.01012C17.1868 5.81297 15.9399 5.15432 14.2934 5.02526C12.7348 4.90065 11.0313 5.94648 10.4078 5.94648C9.74925 5.94648 8.23891 5.06976 7.05347 5.06976C4.60357 5.10981 2 7.05018 2 10.9977C2 12.1637 2.21074 13.3682 2.63223 14.6114C3.19422 16.2447 5.22263 20.25 7.33886 20.1832C8.44527 20.1565 9.22678 19.3866 10.6669 19.3866C12.063 19.3866 12.7875 20.1832 14.0212 20.1832C16.155 20.1521 17.9902 16.5117 18.5259 14.8739C15.6633 13.5077 15.8169 10.8686 15.8169 10.784ZM13.3319 3.47652C14.5305 2.0346 14.4207 0.72174 14.3856 0.25C13.3275 0.312305 12.1026 0.979862 11.4045 1.80318C10.6361 2.68436 10.1839 3.7747 10.2805 5.003C11.4264 5.09201 12.4714 4.49566 13.3319 3.47652Z" fill="black"/>
</g>
<defs>
<clipPath id="clip0_3125_9693">
<rect width="20" height="20" fill="white" transform="translate(0 0.25)"/>
</clipPath>
</defs>
</svg>
