<svg width="24" height="25" viewBox="0 0 24 25" fill="none" xmlns="http://www.w3.org/2000/svg">
<path fill-rule="evenodd" clip-rule="evenodd" d="M1.26408 6.91615C1.57529 6.6626 2.03769 6.70387 2.29687 7.00831C4.01035 9.02104 7.1184 11.5326 12 11.5326C16.8815 11.5326 19.9895 9.02106 21.703 7.00833C21.9622 6.70389 22.4246 6.66263 22.7358 6.91617C23.047 7.16972 23.0892 7.62206 22.83 7.92651C22.3016 8.54723 21.6469 9.21667 20.8577 9.85857C20.9001 9.90503 20.937 9.9577 20.9669 10.0161L22.9224 13.8421C23.1035 14.1965 22.9567 14.6274 22.5945 14.8046C22.2322 14.9818 21.7917 14.8381 21.6106 14.4838L19.6856 10.7174C18.4652 11.5189 16.9983 12.209 15.2651 12.6065L16.1412 16.8918C16.2206 17.2803 15.9631 17.6582 15.5659 17.7359C15.1688 17.8136 14.7825 17.5617 14.703 17.1732L13.8209 12.8586C13.2402 12.9293 12.6334 12.9673 12 12.9673C11.3665 12.9673 10.7597 12.9293 10.1789 12.8586L9.29684 17.1732C9.21741 17.5617 8.83107 17.8136 8.43393 17.7359C8.03679 17.6582 7.77924 17.2803 7.85866 16.8918L8.73478 12.6064C7.30485 12.2785 6.0562 11.7514 4.97768 11.1269L2.32003 14.5934C2.07703 14.9103 1.61738 14.9746 1.29337 14.7369C0.96937 14.4991 0.903705 14.0495 1.14671 13.7325L3.75501 10.3304C2.6858 9.55207 1.8295 8.70132 1.16987 7.92649C0.910686 7.62204 0.952866 7.1697 1.26408 6.91615Z" fill="#333333"/>
</svg>
