<svg width="20" height="21" viewBox="0 0 20 21" fill="none" xmlns="http://www.w3.org/2000/svg">
<g clip-path="url(#clip0_3125_9626)">
<g clip-path="url(#clip1_3125_9626)">
<path d="M19.174 9.96058C19.174 9.18171 19.1121 8.61334 18.9782 8.02393H10.2725V11.5394H15.3825C15.2796 12.413 14.7232 13.7287 13.4869 14.6128L13.4695 14.7305L16.2221 16.909L16.4128 16.9284C18.1643 15.2759 19.174 12.8445 19.174 9.96058Z" fill="#4285F4"/>
<path d="M10.2726 19.2229C12.7761 19.2229 14.8779 18.3808 16.413 16.9283L13.487 14.6127C12.7041 15.1705 11.6532 15.56 10.2726 15.56C7.82061 15.56 5.73948 13.9075 4.99762 11.6235L4.88888 11.633L2.02669 13.8959L1.98926 14.0022C3.51404 17.0967 6.64606 19.2229 10.2726 19.2229Z" fill="#34A853"/>
<path d="M4.9974 11.6236C4.80165 11.0342 4.68836 10.4026 4.68836 9.75004C4.68836 9.09742 4.80165 8.46592 4.9871 7.87651L4.98191 7.75098L2.08385 5.45166L1.98903 5.49774C1.3606 6.78185 1 8.22386 1 9.75004C1 11.2762 1.3606 12.7182 1.98903 14.0023L4.9974 11.6236Z" fill="#FBBC05"/>
<path d="M10.2726 3.93991C12.0138 3.93991 13.1882 4.70826 13.8579 5.35036L16.4748 2.74004C14.8676 1.21386 12.7761 0.2771 10.2726 0.2771C6.64606 0.2771 3.51404 2.40321 1.98926 5.49766L4.98732 7.87643C5.73949 5.59242 7.82061 3.93991 10.2726 3.93991Z" fill="#EB4335"/>
</g>
</g>
<defs>
<clipPath id="clip0_3125_9626">
<rect width="20" height="20" fill="white" transform="translate(0 0.25)"/>
</clipPath>
<clipPath id="clip1_3125_9626">
<rect x="1" y="0.25" width="18.1739" height="19" rx="9.08696" fill="white"/>
</clipPath>
</defs>
</svg>
